<svg width="407" height="275" viewBox="0 0 407 275" fill="none" xmlns="http://www.w3.org/2000/svg">
<g filter="url(#filter0_f_363_1585)">
<path d="M315.927 24.5758L324.297 24.5379H346.185M376.612 24.3009L378.705 24.2914V24.2914C381.013 24.281 382.89 26.1493 382.89 28.4577V84.2883C382.89 86.2775 382.193 88.2038 380.921 89.7327V89.7327C379.648 91.2616 378.951 93.188 378.951 95.1772V171.106C378.951 172.339 379.747 173.431 380.921 173.809V173.809C382.094 174.187 382.89 175.279 382.89 176.512V236.781C382.89 244.513 376.622 250.781 368.89 250.781H236.894C233.38 250.781 230.066 249.144 227.931 246.353V246.353C225.795 243.562 222.482 241.924 218.967 241.924H178.426C174.912 241.924 171.598 243.562 169.463 246.353V246.353C167.327 249.144 164.014 250.781 160.499 250.781H38.2034C30.4714 250.781 24.2034 244.513 24.2034 236.781V177.382C24.2034 175.541 25.1058 173.817 26.6187 172.767V172.767C28.1316 171.718 29.034 169.994 29.034 168.153V93.2507C29.034 91.4095 28.1316 89.6852 26.6187 88.6358V88.6358C25.1058 87.5865 24.2034 85.8622 24.2034 84.021L24.2034 28.6379C24.2034 26.2269 26.1578 24.2725 28.5688 24.2725V24.2725M94.0501 24.2725H59.1268" stroke="#BCFCFF" stroke-width="4"/>
</g>
<defs>
<filter id="filter0_f_363_1585" x="0.203369" y="0.272461" width="406.687" height="274.509" filterUnits="userSpaceOnUse" color-interpolation-filters="sRGB">
<feFlood flood-opacity="0" result="BackgroundImageFix"/>
<feBlend mode="normal" in="SourceGraphic" in2="BackgroundImageFix" result="shape"/>
<feGaussianBlur stdDeviation="11" result="effect1_foregroundBlur_363_1585"/>
</filter>
</defs>
</svg>
